<mxfile host="app.diagrams.net" modified="2023-09-19T02:41:58.433Z" agent="Mozilla/5.0 (Windows NT 10.0; Win64; x64; rv:109.0) Gecko/20100101 Firefox/117.0" etag="3xVdrjtPsREEk660YbPE" version="21.6.6" type="google">
  <diagram name="Page-1" id="hDuZOBGkZdWUJvUCqw1l">
    <mxGraphModel grid="1" page="1" gridSize="10" guides="1" tooltips="1" connect="1" arrows="1" fold="1" pageScale="1" pageWidth="850" pageHeight="1100" math="0" shadow="0">
      <root>
        <mxCell id="0" />
        <mxCell id="1" parent="0" />
        <mxCell id="ncaBcYz2rjscJXnAPrRf-11" value="" style="edgeStyle=orthogonalEdgeStyle;rounded=0;orthogonalLoop=1;jettySize=auto;html=1;" edge="1" parent="1" source="ncaBcYz2rjscJXnAPrRf-1" target="ncaBcYz2rjscJXnAPrRf-9">
          <mxGeometry relative="1" as="geometry" />
        </mxCell>
        <mxCell id="ncaBcYz2rjscJXnAPrRf-1" value="A" style="ellipse;whiteSpace=wrap;html=1;aspect=fixed;" vertex="1" parent="1">
          <mxGeometry x="95" y="80" width="80" height="80" as="geometry" />
        </mxCell>
        <mxCell id="ncaBcYz2rjscJXnAPrRf-3" value="&lt;div&gt;ES: 0&lt;br&gt;&lt;/div&gt;&lt;div&gt;Duration: 7&lt;br&gt;&lt;/div&gt;&lt;div&gt;EF: 7&lt;br&gt;&lt;/div&gt;&lt;div&gt;LS: 1&lt;br&gt;&lt;/div&gt;&lt;div&gt;LF: 8&lt;/div&gt;&lt;div&gt;Slack: 1&lt;br&gt;&lt;/div&gt;" style="text;html=1;strokeColor=none;fillColor=none;align=center;verticalAlign=middle;whiteSpace=wrap;rounded=0;" vertex="1" parent="1">
          <mxGeometry x="175" y="80" width="65" height="80" as="geometry" />
        </mxCell>
        <mxCell id="ncaBcYz2rjscJXnAPrRf-14" value="" style="edgeStyle=orthogonalEdgeStyle;rounded=0;orthogonalLoop=1;jettySize=auto;html=1;" edge="1" parent="1" source="ncaBcYz2rjscJXnAPrRf-5" target="ncaBcYz2rjscJXnAPrRf-12">
          <mxGeometry relative="1" as="geometry" />
        </mxCell>
        <mxCell id="ncaBcYz2rjscJXnAPrRf-17" style="edgeStyle=orthogonalEdgeStyle;rounded=0;orthogonalLoop=1;jettySize=auto;html=1;entryX=0.5;entryY=0;entryDx=0;entryDy=0;" edge="1" parent="1" source="ncaBcYz2rjscJXnAPrRf-5" target="ncaBcYz2rjscJXnAPrRf-15">
          <mxGeometry relative="1" as="geometry">
            <Array as="points">
              <mxPoint x="395" y="180" />
              <mxPoint x="490" y="180" />
            </Array>
          </mxGeometry>
        </mxCell>
        <mxCell id="ncaBcYz2rjscJXnAPrRf-5" value="B" style="ellipse;whiteSpace=wrap;html=1;aspect=fixed;" vertex="1" parent="1">
          <mxGeometry x="355" y="80" width="80" height="80" as="geometry" />
        </mxCell>
        <mxCell id="ncaBcYz2rjscJXnAPrRf-6" value="&lt;div&gt;ES: 0&lt;/div&gt;&lt;div&gt;Duration: 8&lt;br&gt;&lt;/div&gt;&lt;div&gt;EF: 8&lt;br&gt;&lt;/div&gt;&lt;div&gt;LS: 2&lt;br&gt;&lt;/div&gt;&lt;div&gt;LF: 8&lt;/div&gt;&lt;div&gt;Slack: 0&lt;br&gt;&lt;/div&gt;" style="text;html=1;strokeColor=none;fillColor=none;align=center;verticalAlign=middle;whiteSpace=wrap;rounded=0;" vertex="1" parent="1">
          <mxGeometry x="435" y="80" width="65" height="80" as="geometry" />
        </mxCell>
        <mxCell id="ncaBcYz2rjscJXnAPrRf-20" value="" style="edgeStyle=orthogonalEdgeStyle;rounded=0;orthogonalLoop=1;jettySize=auto;html=1;" edge="1" parent="1" source="ncaBcYz2rjscJXnAPrRf-7" target="ncaBcYz2rjscJXnAPrRf-18">
          <mxGeometry relative="1" as="geometry" />
        </mxCell>
        <mxCell id="ncaBcYz2rjscJXnAPrRf-7" value="C" style="ellipse;whiteSpace=wrap;html=1;aspect=fixed;" vertex="1" parent="1">
          <mxGeometry x="605" y="80" width="80" height="80" as="geometry" />
        </mxCell>
        <mxCell id="ncaBcYz2rjscJXnAPrRf-8" value="&lt;div&gt;ES: 0&lt;/div&gt;&lt;div&gt;Duration: 6&lt;br&gt;&lt;/div&gt;&lt;div&gt;EF: 6&lt;br&gt;&lt;/div&gt;&lt;div&gt;LS: 11&lt;br&gt;&lt;/div&gt;&lt;div&gt;LF: 17&lt;/div&gt;&lt;div&gt;Slack: 11&lt;br&gt;&lt;/div&gt;" style="text;html=1;strokeColor=none;fillColor=none;align=center;verticalAlign=middle;whiteSpace=wrap;rounded=0;" vertex="1" parent="1">
          <mxGeometry x="685" y="80" width="65" height="80" as="geometry" />
        </mxCell>
        <mxCell id="ncaBcYz2rjscJXnAPrRf-23" style="edgeStyle=orthogonalEdgeStyle;rounded=0;orthogonalLoop=1;jettySize=auto;html=1;entryX=0.5;entryY=0;entryDx=0;entryDy=0;" edge="1" parent="1" source="ncaBcYz2rjscJXnAPrRf-9" target="ncaBcYz2rjscJXnAPrRf-21">
          <mxGeometry relative="1" as="geometry">
            <Array as="points">
              <mxPoint x="135" y="300" />
              <mxPoint x="245" y="300" />
            </Array>
          </mxGeometry>
        </mxCell>
        <mxCell id="ncaBcYz2rjscJXnAPrRf-9" value="D" style="ellipse;whiteSpace=wrap;html=1;aspect=fixed;" vertex="1" parent="1">
          <mxGeometry x="95" y="200" width="80" height="80" as="geometry" />
        </mxCell>
        <mxCell id="ncaBcYz2rjscJXnAPrRf-10" value="&lt;div&gt;ES: 7&lt;/div&gt;&lt;div&gt;Duration: 6&lt;br&gt;&lt;/div&gt;&lt;div&gt;EF: 13&lt;br&gt;&lt;/div&gt;&lt;div&gt;LS: 8&lt;br&gt;&lt;/div&gt;&lt;div&gt;LF: 14&lt;/div&gt;&lt;div&gt;Slack: 1&lt;br&gt;&lt;/div&gt;" style="text;html=1;strokeColor=none;fillColor=none;align=center;verticalAlign=middle;whiteSpace=wrap;rounded=0;" vertex="1" parent="1">
          <mxGeometry x="175" y="200" width="65" height="80" as="geometry" />
        </mxCell>
        <mxCell id="ncaBcYz2rjscJXnAPrRf-24" style="edgeStyle=orthogonalEdgeStyle;rounded=0;orthogonalLoop=1;jettySize=auto;html=1;entryX=0.5;entryY=0;entryDx=0;entryDy=0;" edge="1" parent="1" source="ncaBcYz2rjscJXnAPrRf-12" target="ncaBcYz2rjscJXnAPrRf-21">
          <mxGeometry relative="1" as="geometry" />
        </mxCell>
        <mxCell id="ncaBcYz2rjscJXnAPrRf-12" value="E" style="ellipse;whiteSpace=wrap;html=1;aspect=fixed;" vertex="1" parent="1">
          <mxGeometry x="285" y="200" width="80" height="80" as="geometry" />
        </mxCell>
        <mxCell id="ncaBcYz2rjscJXnAPrRf-13" value="&lt;div&gt;ES: 8&lt;/div&gt;&lt;div&gt;Duration: 6&lt;br&gt;&lt;/div&gt;&lt;div&gt;EF: 14&lt;br&gt;&lt;/div&gt;&lt;div&gt;LS: 8&lt;br&gt;&lt;/div&gt;&lt;div&gt;LF: 14&lt;/div&gt;&lt;div&gt;Slack: 0&lt;br&gt;&lt;/div&gt;" style="text;html=1;strokeColor=none;fillColor=none;align=center;verticalAlign=middle;whiteSpace=wrap;rounded=0;" vertex="1" parent="1">
          <mxGeometry x="365" y="200" width="65" height="80" as="geometry" />
        </mxCell>
        <mxCell id="ncaBcYz2rjscJXnAPrRf-15" value="F" style="ellipse;whiteSpace=wrap;html=1;aspect=fixed;" vertex="1" parent="1">
          <mxGeometry x="450" y="320" width="80" height="80" as="geometry" />
        </mxCell>
        <mxCell id="ncaBcYz2rjscJXnAPrRf-16" value="&lt;div&gt;ES: 8&lt;/div&gt;&lt;div&gt;Duration: 8&lt;br&gt;&lt;/div&gt;&lt;div&gt;EF: 16&lt;br&gt;&lt;/div&gt;&lt;div&gt;LS: 13&lt;br&gt;&lt;/div&gt;&lt;div&gt;LF: 21&lt;/div&gt;&lt;div&gt;Slack: 5&lt;br&gt;&lt;/div&gt;" style="text;html=1;strokeColor=none;fillColor=none;align=center;verticalAlign=middle;whiteSpace=wrap;rounded=0;" vertex="1" parent="1">
          <mxGeometry x="530" y="320" width="65" height="80" as="geometry" />
        </mxCell>
        <mxCell id="ncaBcYz2rjscJXnAPrRf-18" value="G" style="ellipse;whiteSpace=wrap;html=1;aspect=fixed;" vertex="1" parent="1">
          <mxGeometry x="605" y="320" width="80" height="80" as="geometry" />
        </mxCell>
        <mxCell id="ncaBcYz2rjscJXnAPrRf-19" value="&lt;div&gt;ES: 6&lt;/div&gt;&lt;div&gt;Duration: 4&lt;br&gt;&lt;/div&gt;&lt;div&gt;EF: 10&lt;br&gt;&lt;/div&gt;&lt;div&gt;LS: 17&lt;br&gt;&lt;/div&gt;&lt;div&gt;LF: 21&lt;/div&gt;&lt;div&gt;Slack: 11&lt;br&gt;&lt;/div&gt;" style="text;html=1;strokeColor=none;fillColor=none;align=center;verticalAlign=middle;whiteSpace=wrap;rounded=0;" vertex="1" parent="1">
          <mxGeometry x="685" y="320" width="65" height="80" as="geometry" />
        </mxCell>
        <mxCell id="ncaBcYz2rjscJXnAPrRf-21" value="H" style="ellipse;whiteSpace=wrap;html=1;aspect=fixed;" vertex="1" parent="1">
          <mxGeometry x="205" y="320" width="80" height="80" as="geometry" />
        </mxCell>
        <mxCell id="ncaBcYz2rjscJXnAPrRf-22" value="&lt;div&gt;ES: 14&lt;/div&gt;&lt;div&gt;Duration: 7&lt;br&gt;&lt;/div&gt;&lt;div&gt;EF: 21&lt;br&gt;&lt;/div&gt;&lt;div&gt;LS: 14&lt;br&gt;&lt;/div&gt;&lt;div&gt;LF: 21&lt;/div&gt;&lt;div&gt;Slack: 0&lt;br&gt;&lt;/div&gt;" style="text;html=1;strokeColor=none;fillColor=none;align=center;verticalAlign=middle;whiteSpace=wrap;rounded=0;" vertex="1" parent="1">
          <mxGeometry x="285" y="320" width="65" height="80" as="geometry" />
        </mxCell>
        <mxCell id="ncaBcYz2rjscJXnAPrRf-25" value="I" style="ellipse;whiteSpace=wrap;html=1;aspect=fixed;" vertex="1" parent="1">
          <mxGeometry x="350" y="470" width="80" height="80" as="geometry" />
        </mxCell>
        <mxCell id="ncaBcYz2rjscJXnAPrRf-26" value="&lt;div&gt;ES: 21&lt;/div&gt;&lt;div&gt;Duration: 3&lt;br&gt;&lt;/div&gt;&lt;div&gt;EF: 24&lt;br&gt;&lt;/div&gt;&lt;div&gt;LS: 21&lt;br&gt;&lt;/div&gt;&lt;div&gt;LF: 24&lt;/div&gt;&lt;div&gt;Slack: 0&lt;br&gt;&lt;/div&gt;" style="text;html=1;strokeColor=none;fillColor=none;align=center;verticalAlign=middle;whiteSpace=wrap;rounded=0;" vertex="1" parent="1">
          <mxGeometry x="430" y="470" width="70" height="80" as="geometry" />
        </mxCell>
        <mxCell id="ncaBcYz2rjscJXnAPrRf-30" value="" style="group" connectable="0" vertex="1" parent="1">
          <mxGeometry x="245" y="420" width="400" as="geometry" />
        </mxCell>
        <mxCell id="ncaBcYz2rjscJXnAPrRf-28" style="edgeStyle=orthogonalEdgeStyle;rounded=0;orthogonalLoop=1;jettySize=auto;html=1;entryX=0.5;entryY=0;entryDx=0;entryDy=0;" edge="1" parent="ncaBcYz2rjscJXnAPrRf-30" source="ncaBcYz2rjscJXnAPrRf-15" target="ncaBcYz2rjscJXnAPrRf-25">
          <mxGeometry relative="1" as="geometry">
            <Array as="points">
              <mxPoint x="240" />
              <mxPoint x="145" />
            </Array>
          </mxGeometry>
        </mxCell>
        <mxCell id="ncaBcYz2rjscJXnAPrRf-29" style="edgeStyle=orthogonalEdgeStyle;rounded=0;orthogonalLoop=1;jettySize=auto;html=1;entryX=0.5;entryY=0;entryDx=0;entryDy=0;" edge="1" parent="ncaBcYz2rjscJXnAPrRf-30" source="ncaBcYz2rjscJXnAPrRf-18" target="ncaBcYz2rjscJXnAPrRf-25">
          <mxGeometry relative="1" as="geometry">
            <Array as="points">
              <mxPoint x="400" />
              <mxPoint x="145" />
            </Array>
          </mxGeometry>
        </mxCell>
        <mxCell id="ncaBcYz2rjscJXnAPrRf-27" style="edgeStyle=orthogonalEdgeStyle;rounded=0;orthogonalLoop=1;jettySize=auto;html=1;entryX=0.5;entryY=0;entryDx=0;entryDy=0;" edge="1" parent="ncaBcYz2rjscJXnAPrRf-30" source="ncaBcYz2rjscJXnAPrRf-21" target="ncaBcYz2rjscJXnAPrRf-25">
          <mxGeometry relative="1" as="geometry">
            <Array as="points">
              <mxPoint />
              <mxPoint x="145" />
            </Array>
          </mxGeometry>
        </mxCell>
      </root>
    </mxGraphModel>
  </diagram>
</mxfile>
